<svg width="24" height="24" viewBox="0 0 24 24" fill="none" xmlns="http://www.w3.org/2000/svg">
<g filter="url(#filter0_i)">
<path d="M17.7874 20.9524C15.491 20.9524 14.2266 20.5333 13.1659 19.5048C12.1052 18.4533 11.5749 16.9562 11.5749 15.0133V8.89143C11.5749 6.94857 12.1052 5.46286 13.1659 4.43429C14.2266 3.38286 15.7671 2.85714 17.7874 2.85714C19.8078 2.85714 21.3483 3.38286 22.409 4.43429C23.4697 5.46286 24 6.94857 24 8.89143V9.52381H20.0603V8.65143C20.0603 7.07429 19.3406 6.28572 17.9011 6.28572C16.4616 6.28572 15.7418 7.07429 15.7418 8.65143V15.2876C15.7418 16.8419 16.4616 17.619 17.9011 17.619C19.3406 17.619 20.0603 15.8895 20.0603 14.3352V13.8095H17.9768V11.4286H24V14.061C24 16.0038 23.4697 18.4533 22.409 19.5048C21.3483 20.5333 19.7 20.9524 17.7874 20.9524Z" fill="#E50914"/>
<path d="M17.7874 20.9524C15.491 20.9524 14.2266 20.5333 13.1659 19.5048C12.1052 18.4533 11.5749 16.9562 11.5749 15.0133V8.89143C11.5749 6.94857 12.1052 5.46286 13.1659 4.43429C14.2266 3.38286 15.7671 2.85714 17.7874 2.85714C19.8078 2.85714 21.3483 3.38286 22.409 4.43429C23.4697 5.46286 24 6.94857 24 8.89143V9.52381H20.0603V8.65143C20.0603 7.07429 19.3406 6.28572 17.9011 6.28572C16.4616 6.28572 15.7418 7.07429 15.7418 8.65143V15.2876C15.7418 16.8419 16.4616 17.619 17.9011 17.619C19.3406 17.619 20.0603 15.8895 20.0603 14.3352V13.8095H17.9768V11.4286H24V14.061C24 16.0038 23.4697 18.4533 22.409 19.5048C21.3483 20.5333 19.7 20.9524 17.7874 20.9524Z" fill="#E50914"/>
<path d="M0 0L11.3644 1.57143V5L4.16696 4V9.77143H9.88706V13.2H4.16696V19.4143L11.3644 18.5V22.0381L0 24V0Z" fill="#E50914"/>
</g>
<defs>
<filter id="filter0_i" x="0" y="0" width="26" height="26" filterUnits="userSpaceOnUse" color-interpolation-filters="sRGB">
<feFlood flood-opacity="0" result="BackgroundImageFix"/>
<feBlend mode="normal" in="SourceGraphic" in2="BackgroundImageFix" result="shape"/>
<feColorMatrix in="SourceAlpha" type="matrix" values="0 0 0 0 0 0 0 0 0 0 0 0 0 0 0 0 0 0 127 0" result="hardAlpha"/>
<feOffset dx="2" dy="2"/>
<feGaussianBlur stdDeviation="1.5"/>
<feComposite in2="hardAlpha" operator="arithmetic" k2="-1" k3="1"/>
<feColorMatrix type="matrix" values="0 0 0 0 0 0 0 0 0 0 0 0 0 0 0 0 0 0 0.25 0"/>
<feBlend mode="normal" in2="shape" result="effect1_innerShadow"/>
</filter>
</defs>
</svg>
